<svg version="1.1" id="Layer_1" xmlns="http://www.w3.org/2000/svg" xmlns:xlink="http://www.w3.org/1999/xlink" x="0px" y="0px"
	 width="100%" viewBox="0 0 512 512" enable-background="new 0 0 512 512" xml:space="preserve">
<path fill="#FFFFFF" opacity="1.000000" stroke="none" 
	d="
M513.000000,201.000000 
	C513.000000,304.925507 513.000000,408.851044 513.000000,513.000000 
	C414.312012,513.000000 315.623871,513.000000 216.636383,512.615784 
	C228.433624,509.841309 240.746017,508.221558 252.583237,504.905548 
	C279.882141,497.258179 304.522217,483.858795 325.291779,464.761597 
	C346.713501,445.064728 366.571106,423.666840 387.408356,402.870850 
	C404.671967,385.782593 421.414856,368.602112 438.699463,351.985107 
	C447.960907,343.081390 445.958649,333.670441 439.110168,326.720581 
	C419.005310,306.317963 398.728241,286.083191 378.361938,265.941101 
	C370.413727,258.080353 361.056274,257.746887 353.168274,265.481293 
	C335.577454,282.729584 318.368195,300.367004 300.691406,317.992249 
	C297.645691,321.203705 295.044525,324.400238 292.155701,327.311371 
	C278.681793,340.889282 265.170349,354.430634 251.587524,367.899506 
	C243.668442,375.752197 234.913116,382.389191 224.295135,386.337891 
	C210.888321,391.323761 197.182205,393.582947 183.001892,390.917175 
	C167.846497,388.068024 154.557419,381.294342 142.965927,370.642029 
	C141.036484,368.202393 139.150024,366.145966 137.460678,363.938660 
	C121.866692,343.563293 118.198586,320.942108 124.918663,296.425964 
	C128.370148,283.834320 135.405640,273.271851 144.452148,264.150665 
	C161.522705,246.939178 178.907776,230.039658 196.441925,212.845917 
	C213.691757,195.743332 230.709854,178.853119 247.611282,161.846939 
	C255.914124,153.492661 256.330353,144.069733 248.274139,135.885330 
	C228.067169,115.356903 207.674149,95.009079 187.161194,74.786171 
	C182.078033,69.774887 175.847626,67.155365 168.551346,70.303093 
	C167.350952,70.820961 166.097580,71.468742 165.191086,72.377937 
	C147.093689,90.529144 129.043671,108.727600 110.667572,127.035866 
	C94.325172,143.178955 78.519623,159.431000 62.214745,175.165649 
	C43.983692,192.759094 29.279463,212.734634 18.649540,235.744049 
	C11.810509,250.547729 6.855574,265.918030 3.987674,281.968781 
	C3.031600,287.319641 1.998104,292.656647 1.000001,298.000000 
	C1.000000,199.070892 1.000000,100.141800 1.000000,1.000000 
	C104.688004,1.000000 208.376144,1.000000 312.399353,1.329142 
	C306.683838,3.581053 302.006805,10.116949 302.961945,18.513744 
	C303.600769,24.129719 309.176270,30.260803 315.202271,30.947248 
	C322.853973,31.818888 330.550323,32.292084 338.221741,32.998611 
	C356.951904,34.723637 374.449585,40.665131 391.297211,48.723728 
	C407.712738,56.575615 421.663483,67.891090 435.089355,80.417648 
	C439.648315,85.806885 444.301147,90.710121 448.441071,96.013748 
	C461.315430,112.506981 470.480988,130.891953 476.106628,151.074600 
	C479.910095,164.720108 482.388611,178.496414 482.098297,192.735550 
	C482.040405,195.574219 482.843414,198.557419 483.827148,201.264023 
	C485.895264,206.954224 489.977264,210.380966 496.194458,211.007675 
	C504.292969,211.824005 509.427063,207.742249 513.000000,201.000000 
M370.725494,141.299225 
	C370.017578,140.898972 369.196899,140.619736 368.618195,140.080750 
	C354.354065,126.796356 337.452576,120.588318 318.011261,120.976822 
	C310.184662,121.133217 303.466125,126.656609 303.002228,133.606415 
	C302.360901,143.214111 307.127625,149.702850 315.833923,150.996552 
	C319.553650,151.549271 323.625122,151.216995 326.949799,152.649292 
	C334.802765,156.032410 342.303741,160.232513 350.228973,164.726639 
	C352.130371,167.376709 354.184479,169.931732 355.904327,172.694809 
	C360.885590,180.697556 361.995728,189.769470 363.055084,198.888870 
	C363.780090,205.129776 370.159149,210.453033 376.107880,211.070877 
	C385.149536,212.009949 391.930176,205.726974 392.714813,200.238464 
	C393.415192,195.339493 393.582397,190.167130 392.830536,185.293503 
	C390.249084,168.560043 383.125214,153.943146 370.725494,141.299225 
M413.813477,99.328423 
	C412.038055,97.880302 410.339233,96.324112 408.474304,95.002281 
	C399.025818,88.305267 390.097961,80.600311 379.936859,75.240730 
	C360.560425,65.020416 339.597656,60.524994 317.478912,60.803471 
	C307.132477,60.933731 299.641052,72.536278 304.129364,82.322731 
	C307.565002,89.813873 314.316772,91.958794 321.591949,91.887047 
	C337.569061,91.729485 352.541809,95.824265 366.240295,103.345139 
	C375.462585,108.408424 383.423798,115.768532 392.222748,122.706879 
	C405.627960,136.045441 415.082458,151.715454 418.978210,170.287018 
	C420.948975,179.681854 421.639557,189.341278 423.023529,198.864410 
	C424.168091,206.740219 431.452698,211.709763 440.561737,210.994888 
	C447.108978,210.481064 452.823975,203.853195 453.021393,196.849152 
	C453.512360,179.429749 450.483917,162.731018 444.258301,146.401596 
	C437.499939,128.674759 427.148376,113.489624 413.813477,99.328423 
z"/>
<path fill="#E34300" opacity="1.000000" stroke="none" 
	d="
M143.100342,370.955261 
	C154.557419,381.294342 167.846497,388.068024 183.001892,390.917175 
	C197.182205,393.582947 210.888321,391.323761 224.295135,386.337891 
	C234.913116,382.389191 243.668442,375.752197 251.587524,367.899506 
	C265.170349,354.430634 278.681793,340.889282 292.155701,327.311371 
	C295.044525,324.400238 297.645691,321.203705 301.003357,318.129333 
	C330.122589,346.417725 358.617798,374.715424 387.113037,403.013123 
	C366.571106,423.666840 346.713501,445.064728 325.291779,464.761597 
	C304.522217,483.858795 279.882141,497.258179 252.583237,504.905548 
	C240.746017,508.221558 228.433624,509.841309 216.168533,512.615784 
	C202.979111,513.000000 189.958206,513.000000 176.300110,512.615784 
	C168.577759,511.149506 161.441849,510.324127 154.417435,508.934998 
	C136.686401,505.428528 120.009895,498.941315 104.035095,490.549561 
	C87.007500,481.604736 71.708969,470.321564 58.062473,456.494049 
	C59.010136,455.004639 59.811737,453.740540 60.843956,452.706757 
	C87.231361,426.279572 113.640160,399.873749 140.061432,373.480438 
	C140.989334,372.553558 142.083618,371.793243 143.100342,370.955261 
z"/>
<path fill="#FC5112" opacity="1.000000" stroke="none" 
	d="
M142.965927,370.642029 
	C142.083618,371.793243 140.989334,372.553558 140.061432,373.480438 
	C113.640160,399.873749 87.231361,426.279572 60.843956,452.706757 
	C59.811737,453.740540 59.010136,455.004639 57.721298,456.461182 
	C56.826332,455.938263 56.443123,454.984863 55.776581,454.312195 
	C40.238956,438.632446 28.122921,420.678711 18.805977,400.643341 
	C11.846661,385.677856 6.896306,370.203064 3.988041,354.011871 
	C3.028188,348.668091 1.998019,343.336945 1.000000,338.000000 
	C1.000000,324.979095 1.000000,311.958221 1.000001,298.468658 
	C1.998104,292.656647 3.031600,287.319641 3.987674,281.968781 
	C6.855574,265.918030 11.810509,250.547729 18.649540,235.744049 
	C29.279463,212.734634 43.983692,192.759094 62.214745,175.165649 
	C78.519623,159.431000 94.325172,143.178955 110.914925,127.263115 
	C138.754425,154.776108 166.033112,182.178131 193.293976,209.597885 
	C194.337982,210.647980 195.209991,211.869080 196.162140,213.010483 
	C178.907776,230.039658 161.522705,246.939178 144.452148,264.150665 
	C135.405640,273.271851 128.370148,283.834320 124.918663,296.425964 
	C118.198586,320.942108 121.866692,343.563293 137.460678,363.938660 
	C139.150024,366.145966 141.036484,368.202393 142.965927,370.642029 
z"/>
<path fill="#FFFFFF" opacity="1.000000" stroke="none" 
	d="
M1.000000,338.468658 
	C1.998019,343.336945 3.028188,348.668091 3.988041,354.011871 
	C6.896306,370.203064 11.846661,385.677856 18.805977,400.643341 
	C28.122921,420.678711 40.238956,438.632446 55.776581,454.312195 
	C56.443123,454.984863 56.826332,455.938263 57.682693,456.793823 
	C71.708969,470.321564 87.007500,481.604736 104.035095,490.549561 
	C120.009895,498.941315 136.686401,505.428528 154.417435,508.934998 
	C161.441849,510.324127 168.577759,511.149506 175.831451,512.615784 
	C117.739655,513.000000 59.479317,513.000000 1.000000,513.000000 
	C1.000000,454.979279 1.000000,396.958313 1.000000,338.468658 
z"/>
<path fill="#FFFFFF" opacity="1.000000" stroke="none" 
	d="
M338.000000,1.000000 
	C396.260345,1.000000 454.520660,1.000000 513.000000,1.000000 
	C513.000000,59.020710 513.000000,117.041695 512.629517,175.342651 
	C511.444611,169.291367 511.135651,162.844879 509.723297,156.649948 
	C505.001373,135.938202 498.227600,115.950821 487.222992,97.606216 
	C478.511078,83.083450 468.745941,69.387253 455.962830,57.643318 
	C450.860229,52.712822 446.186249,47.723293 440.880798,43.533333 
	C426.861084,32.461288 412.018372,22.428730 395.203491,16.241722 
	C381.812256,11.314444 367.862122,7.870203 354.078247,4.064060 
	C348.836487,2.616648 343.366150,1.996945 338.000000,1.000000 
z"/>
<path fill="#FE8821" opacity="1.000000" stroke="none" 
	d="
M456.103607,57.948753 
	C468.745941,69.387253 478.511078,83.083450 487.222992,97.606216 
	C498.227600,115.950821 505.001373,135.938202 509.723297,156.649948 
	C511.135651,162.844879 511.444611,169.291367 512.629517,175.811310 
	C513.000000,184.020905 513.000000,192.041809 513.000000,200.531357 
	C509.427063,207.742249 504.292969,211.824005 496.194458,211.007675 
	C489.977264,210.380966 485.895264,206.954224 483.827148,201.264023 
	C482.843414,198.557419 482.040405,195.574219 482.098297,192.735550 
	C482.388611,178.496414 479.910095,164.720108 476.106628,151.074600 
	C470.480988,130.891953 461.315430,112.506981 448.441071,96.013748 
	C444.301147,90.710121 439.648315,85.806885 435.132874,80.065651 
	C442.058289,72.256798 449.080933,65.102776 456.103607,57.948753 
z"/>
<path fill="#FE9923" opacity="1.000000" stroke="none" 
	d="
M455.962830,57.643318 
	C449.080933,65.102776 442.058289,72.256798 434.992126,79.762802 
	C421.663483,67.891090 407.712738,56.575615 391.297211,48.723728 
	C374.449585,40.665131 356.951904,34.723637 338.221741,32.998611 
	C330.550323,32.292084 322.853973,31.818888 315.202271,30.947248 
	C309.176270,30.260803 303.600769,24.129719 302.961945,18.513744 
	C302.006805,10.116949 306.683838,3.581053 312.867188,1.329142 
	C321.020905,1.000000 329.041809,1.000000 337.531372,1.000000 
	C343.366150,1.996945 348.836487,2.616648 354.078247,4.064060 
	C367.862122,7.870203 381.812256,11.314444 395.203491,16.241722 
	C412.018372,22.428730 426.861084,32.461288 440.880798,43.533333 
	C446.186249,47.723293 450.860229,52.712822 455.962830,57.643318 
z"/>
<path fill="#D9D9D9" opacity="1.000000" stroke="none" 
	d="
M196.441940,212.845917 
	C195.209991,211.869080 194.337982,210.647980 193.293976,209.597885 
	C166.033112,182.178131 138.754425,154.776108 111.231445,127.143768 
	C129.043671,108.727600 147.093689,90.529144 165.191086,72.377937 
	C166.097580,71.468742 167.350952,70.820961 168.551346,70.303093 
	C175.847626,67.155365 182.078033,69.774887 187.161194,74.786171 
	C207.674149,95.009079 228.067169,115.356903 248.274139,135.885330 
	C256.330353,144.069733 255.914124,153.492661 247.611282,161.846939 
	C230.709854,178.853119 213.691757,195.743332 196.441940,212.845917 
z"/>
<path fill="#C8C6CD" opacity="1.000000" stroke="none" 
	d="
M387.408325,402.870850 
	C358.617798,374.715424 330.122589,346.417725 301.315399,317.982971 
	C318.368195,300.367004 335.577454,282.729584 353.168274,265.481293 
	C361.056274,257.746887 370.413727,258.080353 378.361938,265.941101 
	C398.728241,286.083191 419.005310,306.317963 439.110168,326.720581 
	C445.958649,333.670441 447.960907,343.081390 438.699463,351.985107 
	C421.414856,368.602112 404.671967,385.782593 387.408325,402.870850 
z"/>
<path fill="#FE8821" opacity="1.000000" stroke="none" 
	d="
M414.102875,99.950073 
	C427.148376,113.489624 437.499939,128.674759 444.258301,146.401596 
	C450.483917,162.731018 453.512360,179.429749 453.021393,196.849152 
	C452.823975,203.853195 447.108978,210.481064 440.561737,210.994888 
	C431.452698,211.709763 424.168091,206.740219 423.023529,198.864410 
	C421.639557,189.341278 420.948975,179.681854 418.978210,170.287018 
	C415.082458,151.715454 405.627960,136.045441 392.231476,122.096420 
	C399.527771,114.307327 406.815308,107.128693 414.102875,99.950073 
z"/>
<path fill="#FE9923" opacity="1.000000" stroke="none" 
	d="
M413.958191,99.639244 
	C406.815308,107.128693 399.527771,114.307327 392.094666,121.793533 
	C383.423798,115.768532 375.462585,108.408424 366.240295,103.345139 
	C352.541809,95.824265 337.569061,91.729485 321.591949,91.887047 
	C314.316772,91.958794 307.565002,89.813873 304.129364,82.322731 
	C299.641052,72.536278 307.132477,60.933731 317.478912,60.803471 
	C339.597656,60.524994 360.560425,65.020416 379.936859,75.240730 
	C390.097961,80.600311 399.025818,88.305267 408.474304,95.002281 
	C410.339233,96.324112 412.038055,97.880302 413.958191,99.639244 
z"/>
<path fill="#FE8821" opacity="1.000000" stroke="none" 
	d="
M371.041992,141.898926 
	C383.125214,153.943146 390.249084,168.560043 392.830536,185.293503 
	C393.582397,190.167130 393.415192,195.339493 392.714813,200.238464 
	C391.930176,205.726974 385.149536,212.009949 376.107880,211.070877 
	C370.159149,210.453033 363.780090,205.129776 363.055084,198.888870 
	C361.995728,189.769470 360.885590,180.697556 355.904327,172.694809 
	C354.184479,169.931732 352.130371,167.376709 350.233887,164.106873 
	C357.173187,156.291046 364.107605,149.094986 371.041992,141.898926 
z"/>
<path fill="#FE9923" opacity="1.000000" stroke="none" 
	d="
M370.883728,141.599075 
	C364.107605,149.094986 357.173187,156.291046 350.092926,163.794678 
	C342.303741,160.232513 334.802765,156.032410 326.949799,152.649292 
	C323.625122,151.216995 319.553650,151.549271 315.833923,150.996552 
	C307.127625,149.702850 302.360901,143.214111 303.002228,133.606415 
	C303.466125,126.656609 310.184662,121.133217 318.011261,120.976822 
	C337.452576,120.588318 354.354065,126.796356 368.618195,140.080750 
	C369.196899,140.619736 370.017578,140.898972 370.883728,141.599075 
z"/>
</svg>